<?xml version="1.0" standalone="no"?>
<!DOCTYPE svg PUBLIC "-//W3C//DTD SVG 20010904//EN"
 "http://www.w3.org/TR/2001/REC-SVG-20010904/DTD/svg10.dtd">
<svg version="1.0" xmlns="http://www.w3.org/2000/svg"
 width="800.000000pt" height="600.000000pt" viewBox="0 0 800.000000 600.000000"
 preserveAspectRatio="xMidYMid meet">

<g transform="translate(0.000000,600.000000) scale(0.100000,-0.100000)"
fill="#000000" stroke="none">
<path d="M3675 5244 c-178 -9 -405 -27 -566 -44 -837 -91 -1575 -317 -2029
-621 -336 -225 -493 -448 -507 -721 -5 -84 -2 -106 20 -175 28 -87 192 -429
286 -597 256 -455 614 -920 932 -1213 288 -265 639 -501 973 -654 91 -41 93
-43 105 -86 38 -143 306 -282 660 -342 593 -101 1289 2 1531 226 32 29 63 66
69 81 8 19 24 33 49 41 69 25 299 138 398 196 603 354 1132 895 1475 1510 136
244 264 550 331 788 28 100 30 120 25 216 -13 281 -166 501 -507 730 -504 337
-1306 564 -2290 646 -173 15 -798 27 -955 19z m770 -124 c659 -35 1245 -137
1735 -300 401 -133 698 -294 897 -484 201 -191 277 -387 229 -589 -89 -380
-620 -722 -1454 -938 -166 -42 -205 -48 -127 -18 l50 19 -45 -5 c-149 -16
-282 -24 -344 -19 -55 5 -95 1 -181 -19 -125 -29 -247 -53 -318 -62 -27 -4
-46 -9 -43 -12 2 -3 78 -8 168 -12 l163 -6 -140 -18 c-386 -48 -839 -68 -1287
-56 -1221 34 -2278 324 -2781 764 -328 287 -354 627 -70 926 340 357 1036 628
1950 759 501 71 1088 97 1598 70z m1222 -2356 c-3 -3 -12 -4 -19 -1 -8 3 -5 6
6 6 11 1 17 -2 13 -5z"/>
<path d="M3793 5049 c-267 -20 -641 -88 -1018 -184 -352 -90 -920 -247 -931
-258 -3 -3 20 -123 50 -268 30 -145 60 -294 67 -331 17 -92 22 -98 54 -60 95
113 367 245 645 313 78 18 123 23 250 23 175 1 245 -12 365 -69 l71 -34 74 21
c112 31 289 31 390 0 102 -32 191 -83 255 -148 30 -29 57 -49 60 -44 3 5 8 31
11 57 4 35 -5 97 -37 233 -23 102 -70 313 -104 470 -54 250 -64 285 -81 286
-10 1 -65 -2 -121 -7z"/>
<path d="M6458 3724 c20 -34 96 -101 151 -130 29 -15 73 -46 97 -67 l44 -39 0
39 c0 104 -95 179 -264 209 -35 6 -37 5 -28 -12z"/>
<path d="M1856 3448 c-10 -38 -7 -46 14 -41 21 5 25 19 14 47 -9 23 -21 20
-28 -6z"/>
<path d="M6568 3421 c-15 -47 -15 -48 11 -79 31 -39 40 -39 75 -7 33 31 33 37
-5 80 -53 60 -63 61 -81 6z"/>
<path d="M1898 3292 c-16 -2 -28 -7 -28 -12 0 -22 104 -120 115 -108 4 3 -52
121 -58 123 -1 0 -14 -1 -29 -3z"/>
<path d="M6355 3170 c-3 -6 1 -13 9 -16 23 -9 108 5 101 17 -8 12 -102 12
-110 -1z"/>
<path d="M6226 3036 c-3 -14 -18 -38 -32 -55 -14 -17 -23 -31 -19 -31 3 0 45
19 93 42 l87 41 -50 13 c-68 18 -72 18 -79 -10z"/>
<path d="M5945 2969 c-27 -10 -37 -17 -21 -14 31 7 97 33 81 33 -5 0 -32 -8
-60 -19z"/>
</g>
</svg>
